/vscmnt/brussel_pixiu_data/_data_brussel/112/vsc11236/PredSimResults/SUBJ06mtu3D/worker5.mot
version=1
nRows=10
nColumns=50
inDegrees=yes
endheader
                time	         pelvis_tilt	         pelvis_list	     pelvis_rotation	           pelvis_tx	           pelvis_ty	           pelvis_tz	       hip_flexion_r	     hip_adduction_r	      hip_rotation_r	        knee_angle_r	       ankle_angle_r	         mtp_angle_r	       hip_flexion_l	     hip_adduction_l	      hip_rotation_l	        knee_angle_l	       ankle_angle_l	         mtp_angle_l	    lumbar_extension	      lumbar_bending	     lumbar_rotation	 ercspn_r/activation	 intobl_r/activation	 extobl_r/activation	    abd_r/activation	    add_r/activation	hamstrings_r/activation	bifemsh_r/activation	glut_max_r/activation	iliopsoas_r/activation	rect_fem_r/activation	  vasti_r/activation	gastroc_r/activation	 soleus_r/activation	tib_ant_r/activation	 ercspn_l/activation	 intobl_l/activation	 extobl_l/activation	    abd_l/activation	    add_l/activation	hamstrings_l/activation	bifemsh_l/activation	glut_max_l/activation	iliopsoas_l/activation	rect_fem_l/activation	  vasti_l/activation	gastroc_l/activation	 soleus_l/activation	tib_ant_l/activation	
          0.63434458	         -6.46761528	          1.44251725	         -5.56417315	          0.71046593	          0.93004919	          0.01133198	        -11.00098544	         -0.67519011	          1.52912436	         -9.07066819	          8.47628616	         32.43154103	         31.00584616	         -0.30406202	         -2.89612575	         -4.15584031	          2.74234215	          0.22464948	         -5.75175579	          0.54180969	         -1.03813478	          0.08105005	          0.00999999	          0.00999999	          0.06201607	          0.01000000	          0.01211482	          0.14972219	          0.05620089	          0.43516028	          0.01551915	          0.00999999	          0.38905420	          0.33341462	          0.02153867	          0.14966797	          0.17281137	          0.00999999	          0.00999999	          0.13570482	          0.17163290	          0.24741855	          0.02081132	          0.17942407	          0.00999999	          0.00999999	          0.02809314	          0.00999999	          0.41291939	
          0.64703147	         -6.54641594	          1.37835050	         -5.61446703	          0.72771590	          0.92796247	          0.01059960	        -11.43182240	         -0.71651948	          1.09466259	        -10.02846630	          7.61898610	         34.31887670	         31.15375795	         -0.18760265	         -2.72552581	         -5.96996012	          2.28419098	          0.21206412	         -5.42635142	          0.28851536	         -0.68791151	          0.11224399	          0.00999999	          0.00999999	          0.05119168	          0.03893346	          0.01539272	          0.12358943	          0.04639149	          0.43818341	          0.01281042	          0.01431465	          0.36254102	          0.31422525	          0.01777928	          0.12480967	          0.14264859	          0.00999999	          0.00999999	          0.16945149	          0.15597344	          0.20423370	          0.06693178	          0.14810709	          0.01000000	          0.00999999	          0.02449598	          0.01482880	          0.41781445	
          0.65971836	         -6.60870710	          1.32977697	         -5.62459079	          0.74531137	          0.92615047	          0.00976970	        -11.69725080	         -0.77895132	          0.64138870	        -11.32725104	          6.60948098	         36.26923671	         31.11488028	         -0.08174893	         -2.52083373	         -7.67914451	          1.86358074	          0.19806015	         -5.08588105	          0.00980655	         -0.33879237	          0.09913358	          0.00999999	          0.00999999	          0.04225660	          0.03213795	          0.01495675	          0.10201792	          0.03829424	          0.44454198	          0.01057447	          0.02153867	          0.33136784	          0.28919321	          0.01467605	          0.12410199	          0.11775047	          0.00999999	          0.05415142	          0.13987521	          0.14187104	          0.16858641	          0.10460102	          0.12225623	          0.00999999	          0.00999999	          0.02022041	          0.01224056	          0.51562676	
          0.67240526	         -6.65612920	          1.27767415	         -5.59231043	          0.76299423	          0.92478896	          0.00882566	        -11.71675880	         -0.84280939	          0.16650481	        -13.06819624	          5.40154878	         38.25857648	         30.95484093	          0.02990245	         -2.37635182	         -9.16032576	          1.24122201	          0.17438396	         -4.76259609	         -0.27000987	         -0.00115272	          0.12982404	          0.00999999	          0.00999999	          0.03488106	          0.06776331	          0.03687563	          0.08421154	          0.03161030	          0.44298006	          0.01000014	          0.01777928	          0.28051130	          0.25732853	          0.01211447	          0.13824477	          0.09719810	          0.00999999	          0.11200786	          0.21352214	          0.12511079	          0.13916106	          0.14443021	          0.10091743	          0.00999999	          0.00999999	          0.01669111	          0.01010407	          0.56435889	
          0.68509215	         -6.68667829	          1.22540703	         -5.52371197	          0.78057507	          0.92399468	          0.00778768	        -11.40691410	         -0.91500760	         -0.33405276	        -15.37628143	          3.99423637	         40.17993152	         30.74844675	          0.15323165	         -2.27023250	        -10.61563128	          0.81811138	          0.13830194	         -4.47428742	         -0.55531357	          0.32179583	          0.16367822	          0.00999999	          0.00999999	          0.02879286	          0.12718648	          0.03287290	          0.06951312	          0.02609299	          0.42359038	          0.01000000	          0.01467605	          0.23155038	          0.21241398	          0.00999999	          0.14761811	          0.08023298	          0.00999999	          0.16361168	          0.25825843	          0.11146423	          0.11487166	          0.19327878	          0.08330313	          0.00999999	          0.01228697	          0.01377782	          0.01000002	          0.57978769	
          0.69777904	         -6.70000880	          1.17936501	         -5.42225999	          0.79787098	          0.92387703	          0.00668294	        -10.70587378	         -1.00768638	         -0.87169209	        -18.32947524	          2.40556672	         41.77906402	         30.53510777	          0.29137339	         -2.18057896	        -12.12021890	          0.74164697	          0.10759423	         -4.23392690	         -0.85369000	          0.62621697	          0.19051617	          0.00999999	          0.00999999	          0.02376731	          0.20816703	          0.04602600	          0.05738019	          0.02153867	          0.38075641	          0.00999999	          0.01211447	          0.19113519	          0.17533889	          0.00999999	          0.14782804	          0.06622899	          0.00999999	          0.19307414	          0.27137553	          0.10149780	          0.09482177	          0.20361177	          0.06876326	          0.00999999	          0.05725466	          0.01137301	          0.00999999	          0.58273982	
          0.71046593	         -6.69788605	          1.14032545	         -5.29168023	          0.81477870	          0.92449852	          0.00554239	         -9.60502244	         -1.13211666	         -1.46249276	        -21.91859778	          0.72680866	         42.57343827	         30.25857470	          0.44834121	         -2.07658320	        -13.53812830	          0.93009603	          0.08247738	         -4.04507312	         -1.16533997	          0.91017334	          0.20127706	          0.00999999	          0.00999999	          0.01961892	          0.23101628	          0.03799261	          0.04736496	          0.01777928	          0.32184965	          0.00999999	          0.00999999	          0.15777414	          0.14473494	          0.00999999	          0.14631414	          0.05466927	          0.00999999	          0.20305425	          0.24983119	          0.09139517	          0.07827142	          0.19496038	          0.05676121	          0.00999999	          0.09441773	          0.00999999	          0.00999999	          0.55175835	
          0.72315282	         -6.68259523	          1.10279373	         -5.13504552	          0.83128062	          0.92583512	          0.00439826	         -8.14518002	         -1.29756448	         -2.10445362	        -26.05036634	         -1.00284733	         42.21683316	         29.86174405	          0.61951568	         -1.94149867	        -14.76671102	          1.40356918	          0.07300303	         -3.90352755	         -1.48361616	          1.17106417	          0.20686704	          0.00999999	          0.00999999	          0.01619460	          0.23014282	          0.03136133	          0.04689052	          0.01467605	          0.26567348	          0.00999999	          0.00999999	          0.13023598	          0.11947266	          0.00999999	          0.13957972	          0.04512720	          0.00999999	          0.20453774	          0.20622524	          0.08489345	          0.06460979	          0.17824558	          0.04685401	          0.00999999	          0.13405592	          0.00999999	          0.00999999	          0.49659977	
          0.73583971	         -6.65777087	          1.05935956	         -4.95269650	          0.84739262	          0.92783285	          0.00327959	         -6.40378904	         -1.50599969	         -2.78134816	        -30.49892459	         -2.99172582	         40.86963781	         29.29038302	          0.79548097	         -1.77485372	        -15.69464738	          2.10134729	          0.11461097	         -3.80206706	         -1.79958530	          1.40428431	          0.21008054	          0.00999999	          0.00999999	          0.01336797	          0.22351819	          0.02588748	          0.08158118	          0.01211447	          0.21930238	          0.00999999	          0.00999999	          0.10750437	          0.09861971	          0.00999999	          0.12444007	          0.03725063	          0.00999999	          0.20173325	          0.17023034	          0.08013309	          0.05333269	          0.15867692	          0.03867603	          0.00999999	          0.15816401	          0.00999999	          0.00999999	          0.43682363	
          0.74852661	         -6.62678279	          0.99887152	         -4.74541393	          0.86312153	          0.93039220	          0.00219852	         -4.46093269	         -1.75100989	         -3.48043473	        -35.06786325	         -5.17723366	         38.39696993	         28.52272696	          0.96233524	         -1.57326668	        -16.25092640	          2.85178869	          0.22020880	         -3.73725059	         -2.09743601	          1.60811923	          0.21226209	          0.00999999	          0.00999999	          0.01103470	          0.18958177	          0.02136905	          0.07839473	          0.00999999	          0.18102498	          0.00999999	          0.00999999	          0.08874038	          0.08140646	          0.06898126	          0.10272009	          0.03074884	          0.00999999	          0.20346233	          0.14051805	          0.07690548	          0.04402392	          0.13253730	          0.03192545	          0.00999999	          0.15923068	          0.00999999	          0.00999999	          0.38619475	
